<?xml version="1.0" encoding="UTF-8"?>
<svg id="Layer_2" data-name="Layer 2" xmlns="http://www.w3.org/2000/svg" xmlns:xlink="http://www.w3.org/1999/xlink" viewBox="0 0 224.08 825.5">
  <defs>
    <style>
      .cls-1, .cls-2 {
        fill: none;
      }

      .cls-1, .cls-3 {
        stroke: #ff1fef;
        stroke-miterlimit: 10;
        stroke-width: 3px;
      }

      .cls-4, .cls-3 {
        fill: #a2c9ff;
      }

      .cls-2 {
        clip-path: url(#clippath);
      }
    </style>
    <clipPath id="clippath">
      <path class="cls-3" d="m16.08,3.44C8.09,32.92.8,73.36,1.55,123.62c1.17,77.76,21.1,144.15,36.73,185.77-8.98-36.57-18.73-95.17-7.46-158.85,5.13-28.97,14-52.53,22.49-71.04,8.1,18,22.33,45.56,47.71,73.18,13.6,14.8,26.87,25.92,37.95,34.06,7.09,110.49,14.17,220.98,21.26,331.47-5.31-3.56-10.86-7.7-16.5-12.5-27.66-23.54-43.91-51.41-52.84-70.15-1.34,11.88-2.14,24.39-2.27,37.54-1.33,144.83,80.25,269.95,80.84,269.78.48-.14-53.57-83.25-51.36-180.79.5-22.05,3.77-40.32,7.43-54.5,8.39,16.11,52.72,65.36,60.67,71.67,6.47,34.5,12.29,71.2,16.99,109.81,5.97,49.05,9.33,94.6,10.89,136.29,8.45-84.43,10.25-605.85,6.94-650.22-18.56-8.16-39.13-18.77-60.88-32.69C90.63,97.92,43.46,41.58,16.08,3.44Z"/>
    </clipPath>
  </defs>
  <g id="Layer_1-2" data-name="Layer 1">
    <g>
      <path class="cls-4" d="m16.08,3.44C8.09,32.92.8,73.36,1.55,123.62c1.17,77.76,21.1,144.15,36.73,185.77-8.98-36.57-18.73-95.17-7.46-158.85,5.13-28.97,14-52.53,22.49-71.04,8.1,18,22.33,45.56,47.71,73.18,13.6,14.8,26.87,25.92,37.95,34.06,7.09,110.49,14.17,220.98,21.26,331.47-5.31-3.56-10.86-7.7-16.5-12.5-27.66-23.54-43.91-51.41-52.84-70.15-1.34,11.88-2.14,24.39-2.27,37.54-1.33,144.83,80.25,269.95,80.84,269.78.48-.14-53.57-83.25-51.36-180.79.5-22.05,3.77-40.32,7.43-54.5,8.39,16.11,52.72,65.36,60.67,71.67,6.47,34.5,12.29,71.2,16.99,109.81,5.97,49.05,9.33,94.6,10.89,136.29,8.45-84.43,10.25-605.85,6.94-650.22-18.56-8.16-39.13-18.77-60.88-32.69C90.63,97.92,43.46,41.58,16.08,3.44Z"/>
      <g class="cls-2">
        <image width="1024" height="1024" transform="translate(-274.91 -24.64) scale(.92)" xlink:href="../../../../../../../../src/mikethemerchant-portfolio/mid-journey/woodsmanvalley_a_purple_and_black_zebra_print_fabric_in_the_sty_9967bc75-7f99-49cc-ae21-1b56892161d9.png"/>
      </g>
      <path class="cls-1" d="m16.08,3.44C8.09,32.92.8,73.36,1.55,123.62c1.17,77.76,21.1,144.15,36.73,185.77-8.98-36.57-18.73-95.17-7.46-158.85,5.13-28.97,14-52.53,22.49-71.04,8.1,18,22.33,45.56,47.71,73.18,13.6,14.8,26.87,25.92,37.95,34.06,7.09,110.49,14.17,220.98,21.26,331.47-5.31-3.56-10.86-7.7-16.5-12.5-27.66-23.54-43.91-51.41-52.84-70.15-1.34,11.88-2.14,24.39-2.27,37.54-1.33,144.83,80.25,269.95,80.84,269.78.48-.14-53.57-83.25-51.36-180.79.5-22.05,3.77-40.32,7.43-54.5,8.39,16.11,52.72,65.36,60.67,71.67,6.47,34.5,12.29,71.2,16.99,109.81,5.97,49.05,9.33,94.6,10.89,136.29,8.45-84.43,10.25-605.85,6.94-650.22-18.56-8.16-39.13-18.77-60.88-32.69C90.63,97.92,43.46,41.58,16.08,3.44Z"/>
    </g>
  </g>
</svg>